<svg xmlns="http://www.w3.org/2000/svg" width="250" height="102" viewBox="0 0 250 102" class="editor-view__logo-preview" data-v-7b637543="" data-v-15c4ff7b=""><svg id="mark" viewBox="0 0 100 100" width="102" height="102" x="0" y="0" data-v-7b637543="" style="fill: rgb(0, 0, 0);"><rect x="0" y="0" width="100%" height="100%" fill="none" data-v-7b637543=""></rect><g data-v-7b637543=""><path xmlns="http://www.w3.org/2000/svg" d="M62.641,32.353c-0.694-1.969-2.128-3.571-3.971-4.49c-0.741-0.37-1.643-0.069-2.012,0.672  c-0.37,0.741-0.069,1.643,0.672,2.012c1.154,0.576,2.05,1.578,2.481,2.805c0.276,0.781,1.133,1.191,1.914,0.916  C62.507,33.99,62.917,33.134,62.641,32.353L62.641,32.353z"></path><path xmlns="http://www.w3.org/2000/svg" d="M86,39.352c0-17.396-14.104-31.5-31.5-31.5c-17.229,0-31.219,13.835-31.487,31H23v5l-9,18h9v17h16.605l4.05,13.297  l37.892-11.541L75.992,62.37C82.147,56.621,86,48.438,86,39.352z M59.839,56.298h-3.121l-0.985,1.644h-2.465l-0.985-1.644h-3.121  v-6.946h10.678V56.298z M60.029,46.352H48.971C47.964,42.662,43,40.877,43,34.371c0-5.41,5.031-10.52,11.5-10.52  S66,28.961,66,34.371C66,40.877,61.036,42.662,60.029,46.352z"></path></g></svg><svg id="name" viewBox="0 0 132.84800720214844 35.465999603271484" width="132" height="35.23960988370871" x="118" y="33.380195058145645" data-v-7b637543="" style="fill: rgb(0, 0, 0);"><rect x="0" y="0" width="100%" height="100%" fill="none" data-v-7b637543=""></rect><g data-v-7b637543=""><path xmlns="http://www.w3.org/2000/svg" d="M27.42 12.83L24.43 12.83Q23.83 9.02 21.87 7.08Q19.92 5.15 16.70 5.11L16.70 5.11Q14.31 5.11 12.51 6.21Q10.72 7.31 9.54 9.15Q8.37 10.99 7.80 13.34Q7.22 15.69 7.22 18.17L7.22 18.17Q7.22 22.13 8.35 25.18Q9.48 28.24 11.64 29.99Q13.80 31.74 16.88 31.74L16.88 31.74Q19.78 31.74 22.63 30.24Q25.48 28.75 27.42 26.08L27.42 26.08L29.62 28.11Q27.37 31.19 24.89 32.77Q22.40 34.36 20.03 34.91Q17.66 35.47 15.78 35.47L15.78 35.47Q12.24 35.47 9.34 34.20Q6.44 32.94 4.35 30.70Q2.25 28.47 1.13 25.51Q0 22.54 0 19.09L0 19.09Q0 15.96 1.01 12.88Q2.02 9.80 4.03 7.29Q6.03 4.78 9.06 3.29Q12.10 1.79 16.10 1.79L16.10 1.79Q17.89 1.79 20.03 2.37Q22.17 2.94 24.06 4.05L24.06 4.05L23.87 2.12L27.42 2.12L27.42 12.83ZM43.19 35.47L43.19 35.47Q39.88 35.47 37.21 34.04Q34.55 32.61 33.01 29.97Q31.46 27.32 31.46 23.74L31.46 23.74Q31.46 19.92 33.05 17.04Q34.64 14.17 37.28 12.58Q39.93 10.99 43.06 10.99L43.06 10.99Q46.37 10.99 48.99 12.42Q51.61 13.85 53.13 16.49Q54.65 19.14 54.65 22.82L54.65 22.82Q54.65 26.68 53.18 29.53Q51.70 32.38 49.13 33.92Q46.55 35.47 43.19 35.47ZM43.38 32.20L43.38 32.20Q45.22 32.15 46.16 30.91Q47.10 29.67 47.47 27.78Q47.84 25.90 47.84 23.97L47.84 23.97Q47.84 22.26 47.59 20.52Q47.33 18.77 46.78 17.34Q46.23 15.92 45.29 15.04Q44.34 14.17 42.96 14.21L42.96 14.21Q41.17 14.26 40.13 15.50Q39.10 16.74 38.66 18.61Q38.23 20.47 38.23 22.49L38.23 22.49Q38.23 24.84 38.73 27.09Q39.24 29.35 40.37 30.80Q41.49 32.25 43.38 32.20ZM66.84 35.47L66.84 35.47Q64.08 35.47 61.98 34.04Q59.89 32.61 58.72 29.99Q57.55 27.37 57.55 23.83L57.55 23.83Q57.55 20.10 58.97 17.20Q60.40 14.31 62.97 12.65Q65.55 10.99 68.95 10.99L68.95 10.99Q70.20 10.99 71.19 11.25Q72.17 11.50 73.05 11.82L73.05 11.82L73.05 8.79Q73.05 8.14 73.09 6.95Q73.14 5.75 73.23 4.74L73.23 4.74Q72.50 4.78 71.48 4.83Q70.47 4.88 69.97 4.88L69.97 4.88L69.97 1.38Q72.13 1.38 73.58 1.15Q75.03 0.92 75.88 0.60Q76.73 0.28 77.05 0L77.05 0L79.53 0L79.53 27.32Q79.53 27.97 79.49 29.14Q79.44 30.31 79.35 31.37L79.35 31.37Q80.13 31.28 81.01 31.26Q81.88 31.23 82.34 31.23L82.34 31.23L82.34 34.73L73.60 34.73Q73.55 34.22 73.48 33.67Q73.42 33.12 73.32 32.61L73.32 32.61Q71.81 34.18 70.20 34.82Q68.59 35.47 66.84 35.47ZM69.23 31.28L69.23 31.28Q70.43 31.28 71.44 30.66Q72.45 30.04 73.05 29.07L73.05 29.07Q73.05 28.38 73.05 27.69Q73.05 27.00 73.05 26.31L73.05 26.31L73.05 15.27Q72.59 14.90 71.67 14.65Q70.75 14.40 69.78 14.40L69.78 14.40Q67.67 14.44 66.47 15.73Q65.27 17.02 64.79 19.00Q64.31 20.98 64.31 23.14L64.31 23.14Q64.31 25.07 64.79 26.96Q65.27 28.84 66.36 30.06Q67.44 31.28 69.23 31.28ZM96.28 35.47L96.28 35.47Q92.92 35.47 90.34 33.97Q87.77 32.48 86.34 29.74Q84.92 27.00 84.92 23.28L84.92 23.28Q84.92 20.06 86.34 17.25Q87.77 14.44 90.37 12.72Q92.97 10.99 96.42 10.99L96.42 10.99Q98.35 10.99 100.19 11.52Q102.03 12.05 103.52 13.34Q105.02 14.63 105.91 16.84Q106.81 19.04 106.77 22.36L106.77 22.36L91.68 22.63Q91.68 25.12 92.30 27.09Q92.92 29.07 94.35 30.22Q95.77 31.37 98.16 31.37L98.16 31.37Q99.08 31.37 100.26 31.05Q101.43 30.73 102.65 29.97Q103.87 29.21 104.93 27.92L104.93 27.92L107.00 29.85Q105.34 32.20 103.45 33.42Q101.57 34.64 99.70 35.05Q97.84 35.47 96.28 35.47ZM91.95 19.41L91.95 19.41L100.42 19.41Q100.37 17.48 99.89 16.35Q99.41 15.23 98.58 14.72Q97.75 14.21 96.65 14.21L96.65 14.21Q94.62 14.21 93.47 15.66Q92.32 17.11 91.95 19.41ZM122.68 34.87L118.68 34.87L111.41 18.91Q110.91 17.76 110.70 17.16Q110.49 16.56 110.42 16.12Q110.35 15.69 110.22 15.13L110.22 15.13L108.51 15.23L108.51 11.73L119.28 11.73L119.28 14.67Q118.31 14.72 117.99 15.23Q117.67 15.73 117.76 16.54Q117.85 17.34 118.17 18.26L118.17 18.26L120.57 24.15Q120.93 25.02 121.30 25.94Q121.67 26.86 122.04 27.78L122.04 27.78L122.08 27.78Q122.45 26.82 122.80 25.85Q123.14 24.89 123.46 23.92L123.46 23.92L125.44 18.31Q125.86 17.16 126.20 16.47Q126.55 15.78 126.96 15.04L126.96 15.04L124.11 15.23L124.11 11.73L132.85 11.73L132.85 14.67Q131.79 14.86 130.96 15.85Q130.13 16.84 129.54 18.05Q128.94 19.27 128.57 20.19L128.57 20.19L122.68 34.87Z"></path></g></svg><!----></svg>