<svg xmlns="http://www.w3.org/2000/svg" width="267" height="102" viewBox="0 0 267 102" class="editor-view__logo-preview" data-v-7b637543="" data-v-15c4ff7b=""><svg id="mark" viewBox="0 0 52 52" width="102" height="102" x="0" y="0" data-v-7b637543="" style="fill: rgb(0, 0, 0);"><rect x="0" y="0" width="100%" height="100%" fill="none" data-v-7b637543=""></rect><g data-v-7b637543=""><style xmlns="http://www.w3.org/2000/svg" type="text/css">	.st0{fill:none;stroke:#000000;stroke-width:2;stroke-linecap:round;stroke-linejoin:round;stroke-miterlimit:10;}</style><g xmlns="http://www.w3.org/2000/svg"><g><path d="M34.1743164,38.1162109H17.902832c-0.5522461,0-1-0.4477539-1-1V20.8442383c0-0.5522461,0.4477539-1,1-1h16.2714844    c0.5522461,0,1,0.4477539,1,1v16.2719727C35.1743164,37.668457,34.7265625,38.1162109,34.1743164,38.1162109z     M18.902832,36.1162109h14.2714844V21.8442383H18.902832V36.1162109z"></path></g><g><path d="M11.4882813,37.1274414c-1.9311523,0-3.5024414-1.5712891-3.5024414-3.5029297v-6.6157227    c0-2.4379883,1.9833984-4.421875,4.421875-4.421875h1.5834961c0.5522461,0,1,0.4477539,1,1v10.0375977    C14.9912109,35.5561523,13.4199219,37.1274414,11.4882813,37.1274414z M12.4077148,24.5869141    c-1.3354492,0-2.421875,1.0864258-2.421875,2.421875v6.6157227c0,0.8286133,0.6738281,1.5029297,1.5024414,1.5029297    s1.5029297-0.6743164,1.5029297-1.5029297v-9.0375977H12.4077148z"></path></g><g><path d="M40.5112305,37.1274414c-1.9311523,0-3.5024414-1.5712891-3.5024414-3.5029297V23.5869141c0-0.5522461,0.4477539-1,1-1    h1.5830078c2.4384766,0,4.4223633,1.9838867,4.4223633,4.421875v6.6157227    C44.0141602,35.5561523,42.4428711,37.1274414,40.5112305,37.1274414z M39.0087891,24.5869141v9.0375977    c0,0.8286133,0.6738281,1.5029297,1.5024414,1.5029297s1.5029297-0.6743164,1.5029297-1.5029297v-6.6157227    c0-1.3354492-1.0869141-2.421875-2.4223633-2.421875H39.0087891z"></path></g><g><path d="M32.3583984,16.7250977H19.6479492c-0.5522461,0-1-0.4477539-1-1v-4.0727539    c-1.4067383-0.4262695-2.4277344-1.7294922-2.4277344-3.2661133V7.362793c0-1.5395508,1.0244141-2.8447266,2.4277344-3.2685547V3    c0-0.5522461,0.4477539-1,1-1h12.7104492c0.5522461,0,1,0.4477539,1,1v1.0986328    c1.3959961,0.4282227,2.4135742,1.7294922,2.4135742,3.2641602v1.0234375c0,1.534668-1.0175781,2.8359375-2.4135742,3.2641602    v4.074707C33.3583984,16.2773438,32.9106445,16.7250977,32.3583984,16.7250977z M20.6479492,14.7250977h10.7104492v-3.925293    c0-0.5522461,0.4477539-1,1-1c0.7792969,0,1.4135742-0.6342773,1.4135742-1.4135742V7.362793    c0-0.7792969-0.6342773-1.4135742-1.4135742-1.4135742c-0.5522461,0-1-0.4477539-1-1V4H20.6479492v0.9492188    c0,0.5522461-0.4477539,1-1,1c-0.793457,0-1.4277344,0.6342773-1.4277344,1.4135742v1.0234375    c0,0.7792969,0.6342773,1.4135742,1.4135742,1.4135742c0.5522461,0,1.0141602,0.4477539,1.0141602,1V14.7250977z"></path></g><g><path d="M21.3071289,50h-1.6362305c-1.5263672,0-2.7680664-1.2416992-2.7680664-2.7680664V37.1162109c0-0.5522461,0.4477539-1,1-1    h5.1723633c0.5522461,0,1,0.4477539,1,1v10.1157227C24.0751953,48.7583008,22.8334961,50,21.3071289,50z M18.902832,38.1162109    v9.1157227C18.902832,47.6552734,19.2475586,48,19.6708984,48h1.6362305c0.4233398,0,0.7680664-0.3447266,0.7680664-0.7680664    v-9.1157227H18.902832z"></path></g><g><path d="M32.3798828,50h-1.6601563c-1.5410156,0-2.7944336-1.253418-2.7944336-2.7944336V37.1162109c0-0.5522461,0.4477539-1,1-1    h5.2490234c0.5522461,0,1,0.4477539,1,1v10.0893555C35.1743164,48.746582,33.9208984,50,32.3798828,50z M29.925293,38.1162109    v9.0893555C29.925293,47.6435547,30.2817383,48,30.7197266,48h1.6601563c0.4379883,0,0.7944336-0.3564453,0.7944336-0.7944336    v-9.0893555H29.925293z"></path></g><g><path d="M17.902832,25.5009766h-3.9116211c-0.5522461,0-1-0.4477539-1-1s0.4477539-1,1-1h3.9116211c0.5522461,0,1,0.4477539,1,1    S18.4550781,25.5009766,17.902832,25.5009766z"></path></g><g><path d="M38.0087891,25.5009766h-3.8344727c-0.5522461,0-1-0.4477539-1-1s0.4477539-1,1-1h3.8344727c0.5522461,0,1,0.4477539,1,1    S38.5610352,25.5009766,38.0087891,25.5009766z"></path></g><g><path d="M26,21.8442383c-0.5522461,0-1-0.4477539-1-1v-4.9365234c0-0.5522461,0.4477539-1,1-1s1,0.4477539,1,1v4.9365234    C27,21.3964844,26.5522461,21.8442383,26,21.8442383z"></path></g><g><path d="M22.9995117,10.0039063c-0.2602539,0-0.5200195-0.1098633-0.7099609-0.300293    c-0.090332-0.0898438-0.1601563-0.199707-0.2099609-0.3198242c-0.050293-0.1201172-0.0800781-0.25-0.0800781-0.3798828    c0-0.2700195,0.1098633-0.5302734,0.2900391-0.7099609c0.0498047-0.050293,0.1000977-0.090332,0.159668-0.1298828    c0.050293-0.0302734,0.1103516-0.0600586,0.1704102-0.090332c0.0595703-0.0200195,0.1196289-0.0400391,0.1796875-0.0498047    c0.2001953-0.0400391,0.3999023-0.0200195,0.5800781,0.0498047c0.1201172,0.050293,0.2299805,0.1298828,0.3300781,0.2202148    c0.1801758,0.1796875,0.2900391,0.4399414,0.2900391,0.7099609c0,0.1298828-0.0200195,0.2597656-0.0800781,0.3798828    c-0.0498047,0.1201172-0.1201172,0.2299805-0.2099609,0.3198242c-0.1000977,0.1000977-0.2001953,0.1704102-0.3300781,0.2202148    C23.2592773,9.9736328,23.1293945,10.0039063,22.9995117,10.0039063z"></path></g><g><path d="M28.9995117,10.0039063c-0.1298828,0-0.2602539-0.0302734-0.3798828-0.0800781    c-0.1201172-0.0498047-0.2299805-0.1201172-0.3300781-0.2202148c-0.090332-0.0898438-0.1601563-0.199707-0.2099609-0.3198242    c-0.050293-0.1201172-0.0800781-0.25-0.0800781-0.3798828s0.0297852-0.2602539,0.0800781-0.3901367    c0.0498047-0.1201172,0.1196289-0.2299805,0.2099609-0.3198242c0.1000977-0.090332,0.2099609-0.1699219,0.3300781-0.2202148    c0.2397461-0.1000977,0.5200195-0.1000977,0.7597656,0c0.1298828,0.050293,0.2299805,0.1298828,0.3300781,0.2202148    c0.0898438,0.0898438,0.1601563,0.199707,0.2099609,0.3198242c0.0498047,0.1298828,0.0800781,0.2602539,0.0800781,0.3901367    s-0.0302734,0.2597656-0.0800781,0.3798828s-0.1201172,0.2299805-0.2099609,0.3198242    c-0.1000977,0.1000977-0.2001953,0.1704102-0.3300781,0.2202148    C29.2592773,9.9736328,29.1293945,10.0039063,28.9995117,10.0039063z"></path></g></g></g></svg><svg id="name" viewBox="0 0 149.45399475097656 34.683998107910156" width="149" height="34.5786389095153" x="118" y="33.710680545242354" data-v-7b637543="" style="fill: rgb(0, 0, 0);"><rect x="0" y="0" width="100%" height="100%" fill="none" data-v-7b637543=""></rect><g data-v-7b637543=""><path xmlns="http://www.w3.org/2000/svg" d="M17.43 34.68L17.43 34.68Q13.71 34.68 10.51 33.46Q7.31 32.25 4.97 29.99Q2.62 27.74 1.31 24.70Q0 21.67 0 18.03L0 18.03Q0 14.40 1.31 11.36Q2.62 8.33 4.99 6.07Q7.36 3.82 10.53 2.60Q13.71 1.38 17.48 1.38L17.48 1.38Q21.67 1.38 25.05 2.83Q28.43 4.28 30.73 7.08L30.73 7.08L25.94 11.50Q24.29 9.61 22.26 8.67Q20.24 7.73 17.85 7.73L17.85 7.73Q15.59 7.73 13.71 8.46Q11.82 9.20 10.44 10.58Q9.06 11.96 8.30 13.85Q7.54 15.73 7.54 18.03L7.54 18.03Q7.54 20.33 8.30 22.22Q9.06 24.10 10.44 25.48Q11.82 26.86 13.71 27.60Q15.59 28.34 17.85 28.34L17.85 28.34Q20.24 28.34 22.26 27.39Q24.29 26.45 25.94 24.52L25.94 24.52L30.73 28.93Q28.43 31.74 25.05 33.21Q21.67 34.68 17.43 34.68ZM46.14 34.50L46.14 34.50Q42.18 34.50 39.12 32.84Q36.06 31.19 34.29 28.31Q32.52 25.44 32.52 21.76L32.52 21.76Q32.52 18.03 34.29 15.16Q36.06 12.28 39.12 10.65Q42.18 9.02 46.14 9.02L46.14 9.02Q50.05 9.02 53.13 10.65Q56.21 12.28 57.96 15.13Q59.71 17.99 59.71 21.76L59.71 21.76Q59.71 25.44 57.96 28.31Q56.21 31.19 53.13 32.84Q50.05 34.50 46.14 34.50ZM46.14 28.61L46.14 28.61Q47.93 28.61 49.36 27.78Q50.78 26.96 51.61 25.41Q52.44 23.87 52.44 21.76L52.44 21.76Q52.44 19.60 51.61 18.08Q50.78 16.56 49.36 15.73Q47.93 14.90 46.14 14.90L46.14 14.90Q44.34 14.90 42.92 15.73Q41.49 16.56 40.64 18.08Q39.79 19.60 39.79 21.76L39.79 21.76Q39.79 23.87 40.64 25.41Q41.49 26.96 42.92 27.78Q44.34 28.61 46.14 28.61ZM75.12 34.50L75.12 34.50Q71.62 34.50 68.82 32.91Q66.01 31.33 64.38 28.47Q62.74 25.62 62.74 21.76L62.74 21.76Q62.74 17.85 64.38 15.00Q66.01 12.14 68.82 10.58Q71.62 9.02 75.12 9.02L75.12 9.02Q78.25 9.02 80.59 10.40Q82.94 11.78 84.23 14.58Q85.51 17.39 85.51 21.76L85.51 21.76Q85.51 26.08 84.27 28.91Q83.03 31.74 80.71 33.12Q78.38 34.50 75.12 34.50ZM76.36 28.61L76.36 28.61Q78.11 28.61 79.53 27.78Q80.96 26.96 81.81 25.41Q82.66 23.87 82.66 21.76L82.66 21.76Q82.66 19.60 81.81 18.08Q80.96 16.56 79.53 15.73Q78.11 14.90 76.36 14.90L76.36 14.90Q74.57 14.90 73.14 15.73Q71.71 16.56 70.86 18.08Q70.01 19.60 70.01 21.76L70.01 21.76Q70.01 23.87 70.86 25.41Q71.71 26.96 73.14 27.78Q74.57 28.61 76.36 28.61ZM89.70 34.13L82.85 34.13L82.85 29.07L82.98 21.71L82.52 14.40L82.52 0L89.70 0L89.70 34.13ZM108.61 34.50L108.61 34.50Q104.37 34.50 101.18 32.84Q97.98 31.19 96.23 28.31Q94.48 25.44 94.48 21.76L94.48 21.76Q94.48 18.03 96.21 15.16Q97.93 12.28 100.92 10.65Q103.91 9.02 107.69 9.02L107.69 9.02Q111.32 9.02 114.24 10.56Q117.16 12.10 118.86 14.97Q120.57 17.85 120.57 21.85L120.57 21.85Q120.57 22.26 120.52 22.79Q120.47 23.32 120.43 23.78L120.43 23.78L100.33 23.78L100.33 19.60L116.66 19.60L113.90 20.84Q113.90 18.91 113.11 17.48Q112.33 16.05 110.95 15.25Q109.57 14.44 107.73 14.44L107.73 14.44Q105.89 14.44 104.49 15.25Q103.09 16.05 102.30 17.50Q101.52 18.95 101.52 20.93L101.52 20.93L101.52 22.03Q101.52 24.06 102.42 25.60Q103.32 27.14 104.95 27.94Q106.58 28.75 108.79 28.75L108.79 28.75Q110.77 28.75 112.26 28.15Q113.76 27.55 115 26.36L115 26.36L118.82 30.50Q117.12 32.43 114.54 33.46Q111.96 34.50 108.61 34.50ZM139.01 34.13L131.61 34.13L121.21 9.38L128.62 9.38L137.26 30.68L133.58 30.68L142.55 9.38L149.45 9.38L139.01 34.13Z"></path></g></svg><!----></svg>